<svg width="176" height="56" viewBox="0 0 176 56" fill="none" xmlns="http://www.w3.org/2000/svg">
<rect width="176" height="56" rx="8" fill="#1B1232"/>
<g clip-path="url(#clip0_1303_3966)">
<path d="M32.9774 18.01C32.9349 17.9625 31.4037 18.0288 30.0712 19.475C28.7387 20.92 28.9437 22.5775 28.9737 22.62C29.0037 22.6625 30.8737 22.7288 32.0674 21.0475C33.2612 19.3663 33.0199 18.0588 32.9774 18.01ZM37.1199 32.6763C37.0599 32.5563 34.2137 31.1338 34.4787 28.3988C34.7437 25.6625 36.5724 24.9125 36.6012 24.8313C36.6299 24.75 35.8549 23.8438 35.0337 23.385C34.4307 23.0616 33.7633 22.8763 33.0799 22.8425C32.9449 22.8388 32.4762 22.7238 31.5124 22.9875C30.8774 23.1613 29.4462 23.7238 29.0524 23.7463C28.6574 23.7688 27.4824 23.0938 26.2187 22.915C25.4099 22.7588 24.5524 23.0788 23.9387 23.325C23.3262 23.57 22.1612 24.2675 21.3462 26.1213C20.5312 27.9738 20.9574 30.9088 21.2624 31.8213C21.5674 32.7325 22.0437 34.2263 22.8537 35.3163C23.5737 36.5463 24.5287 37.4 24.9274 37.69C25.3262 37.98 26.4512 38.1725 27.2312 37.7738C27.8587 37.3888 28.9912 37.1675 29.4387 37.1838C29.8849 37.2 30.7649 37.3763 31.6662 37.8575C32.3799 38.1038 33.0549 38.0013 33.7312 37.7263C34.4074 37.45 35.3862 36.4025 36.5287 34.2788C36.9624 33.2913 37.1599 32.7575 37.1199 32.6763Z" fill="#242424"/>
<path d="M32.9774 18.01C32.9349 17.9625 31.4037 18.0288 30.0712 19.475C28.7387 20.92 28.9437 22.5775 28.9737 22.62C29.0037 22.6625 30.8737 22.7288 32.0674 21.0475C33.2612 19.3663 33.0199 18.0588 32.9774 18.01ZM37.1199 32.6763C37.0599 32.5563 34.2137 31.1338 34.4787 28.3988C34.7437 25.6625 36.5724 24.9125 36.6012 24.8313C36.6299 24.75 35.8549 23.8438 35.0337 23.385C34.4307 23.0616 33.7633 22.8763 33.0799 22.8425C32.9449 22.8388 32.4762 22.7238 31.5124 22.9875C30.8774 23.1613 29.4462 23.7238 29.0524 23.7463C28.6574 23.7688 27.4824 23.0938 26.2187 22.915C25.4099 22.7588 24.5524 23.0788 23.9387 23.325C23.3262 23.57 22.1612 24.2675 21.3462 26.1213C20.5312 27.9738 20.9574 30.9088 21.2624 31.8213C21.5674 32.7325 22.0437 34.2263 22.8537 35.3163C23.5737 36.5463 24.5287 37.4 24.9274 37.69C25.3262 37.98 26.4512 38.1725 27.2312 37.7738C27.8587 37.3888 28.9912 37.1675 29.4387 37.1838C29.8849 37.2 30.7649 37.3763 31.6662 37.8575C32.3799 38.1038 33.0549 38.0013 33.7312 37.7263C34.4074 37.45 35.3862 36.4025 36.5287 34.2788C36.9624 33.2913 37.1599 32.7575 37.1199 32.6763Z" fill="white"/>
</g>
<path d="M62.134 20.224C62.198 20.224 62.254 20.25 62.302 20.302L62.764 20.8C62.412 21.208 61.984 21.526 61.48 21.754C60.98 21.982 60.374 22.096 59.662 22.096C59.046 22.096 58.486 21.99 57.982 21.778C57.478 21.562 57.048 21.262 56.692 20.878C56.336 20.49 56.06 20.026 55.864 19.486C55.668 18.946 55.57 18.352 55.57 17.704C55.57 17.056 55.672 16.462 55.876 15.922C56.08 15.382 56.366 14.918 56.734 14.53C57.106 14.142 57.55 13.842 58.066 13.63C58.582 13.414 59.152 13.306 59.776 13.306C60.388 13.306 60.928 13.404 61.396 13.6C61.864 13.796 62.276 14.062 62.632 14.398L62.248 14.932C62.224 14.972 62.192 15.006 62.152 15.034C62.116 15.058 62.066 15.07 62.002 15.07C61.93 15.07 61.842 15.032 61.738 14.956C61.634 14.876 61.498 14.788 61.33 14.692C61.162 14.596 60.952 14.51 60.7 14.434C60.448 14.354 60.138 14.314 59.77 14.314C59.326 14.314 58.92 14.392 58.552 14.548C58.184 14.7 57.866 14.922 57.598 15.214C57.334 15.506 57.128 15.862 56.98 16.282C56.832 16.702 56.758 17.176 56.758 17.704C56.758 18.24 56.834 18.718 56.986 19.138C57.142 19.558 57.352 19.914 57.616 20.206C57.884 20.494 58.198 20.714 58.558 20.866C58.922 21.018 59.314 21.094 59.734 21.094C59.99 21.094 60.22 21.08 60.424 21.052C60.632 21.02 60.822 20.972 60.994 20.908C61.17 20.844 61.332 20.764 61.48 20.668C61.632 20.568 61.782 20.45 61.93 20.314C61.998 20.254 62.066 20.224 62.134 20.224ZM66.3064 15.826C66.7504 15.826 67.1504 15.9 67.5064 16.048C67.8624 16.196 68.1664 16.406 68.4184 16.678C68.6704 16.95 68.8624 17.28 68.9944 17.668C69.1304 18.052 69.1984 18.482 69.1984 18.958C69.1984 19.438 69.1304 19.87 68.9944 20.254C68.8624 20.638 68.6704 20.966 68.4184 21.238C68.1664 21.51 67.8624 21.72 67.5064 21.868C67.1504 22.012 66.7504 22.084 66.3064 22.084C65.8584 22.084 65.4544 22.012 65.0944 21.868C64.7384 21.72 64.4344 21.51 64.1824 21.238C63.9304 20.966 63.7364 20.638 63.6004 20.254C63.4684 19.87 63.4024 19.438 63.4024 18.958C63.4024 18.482 63.4684 18.052 63.6004 17.668C63.7364 17.28 63.9304 16.95 64.1824 16.678C64.4344 16.406 64.7384 16.196 65.0944 16.048C65.4544 15.9 65.8584 15.826 66.3064 15.826ZM66.3064 21.25C66.9064 21.25 67.3544 21.05 67.6504 20.65C67.9464 20.246 68.0944 19.684 68.0944 18.964C68.0944 18.24 67.9464 17.676 67.6504 17.272C67.3544 16.868 66.9064 16.666 66.3064 16.666C66.0024 16.666 65.7364 16.718 65.5084 16.822C65.2844 16.926 65.0964 17.076 64.9444 17.272C64.7964 17.468 64.6844 17.71 64.6084 17.998C64.5364 18.282 64.5004 18.604 64.5004 18.964C64.5004 19.684 64.6484 20.246 64.9444 20.65C65.2444 21.05 65.6984 21.25 66.3064 21.25ZM70.553 22V15.922H71.195C71.347 15.922 71.441 15.996 71.477 16.144L71.555 16.768C71.779 16.492 72.031 16.266 72.311 16.09C72.591 15.914 72.915 15.826 73.283 15.826C73.691 15.826 74.021 15.94 74.273 16.168C74.529 16.396 74.713 16.704 74.825 17.092C74.913 16.872 75.025 16.682 75.161 16.522C75.301 16.362 75.457 16.23 75.629 16.126C75.801 16.022 75.983 15.946 76.175 15.898C76.371 15.85 76.569 15.826 76.769 15.826C77.089 15.826 77.373 15.878 77.621 15.982C77.873 16.082 78.085 16.23 78.257 16.426C78.433 16.622 78.567 16.864 78.659 17.152C78.751 17.436 78.797 17.762 78.797 18.13V22H77.723V18.13C77.723 17.654 77.619 17.294 77.411 17.05C77.203 16.802 76.903 16.678 76.511 16.678C76.335 16.678 76.167 16.71 76.007 16.774C75.851 16.834 75.713 16.924 75.593 17.044C75.473 17.164 75.377 17.316 75.305 17.5C75.237 17.68 75.203 17.89 75.203 18.13V22H74.129V18.13C74.129 17.642 74.031 17.278 73.835 17.038C73.639 16.798 73.353 16.678 72.977 16.678C72.713 16.678 72.469 16.75 72.245 16.894C72.021 17.034 71.815 17.226 71.627 17.47V22H70.553ZM81.5482 15.922V22H80.4802V15.922H81.5482ZM81.7762 14.014C81.7762 14.118 81.7542 14.216 81.7102 14.308C81.6702 14.396 81.6142 14.476 81.5422 14.548C81.4742 14.616 81.3922 14.67 81.2962 14.71C81.2042 14.75 81.1062 14.77 81.0022 14.77C80.8982 14.77 80.8002 14.75 80.7082 14.71C80.6202 14.67 80.5422 14.616 80.4742 14.548C80.4062 14.476 80.3522 14.396 80.3122 14.308C80.2722 14.216 80.2522 14.118 80.2522 14.014C80.2522 13.91 80.2722 13.812 80.3122 13.72C80.3522 13.624 80.4062 13.542 80.4742 13.474C80.5422 13.402 80.6202 13.346 80.7082 13.306C80.8002 13.266 80.8982 13.246 81.0022 13.246C81.1062 13.246 81.2042 13.266 81.2962 13.306C81.3922 13.346 81.4742 13.402 81.5422 13.474C81.6142 13.542 81.6702 13.624 81.7102 13.72C81.7542 13.812 81.7762 13.91 81.7762 14.014ZM84.311 16.804C84.443 16.656 84.583 16.522 84.731 16.402C84.879 16.282 85.035 16.18 85.199 16.096C85.367 16.008 85.543 15.942 85.727 15.898C85.915 15.85 86.117 15.826 86.333 15.826C86.665 15.826 86.957 15.882 87.209 15.994C87.465 16.102 87.677 16.258 87.845 16.462C88.017 16.662 88.147 16.904 88.235 17.188C88.323 17.472 88.367 17.786 88.367 18.13V22H87.293V18.13C87.293 17.67 87.187 17.314 86.975 17.062C86.767 16.806 86.449 16.678 86.021 16.678C85.705 16.678 85.409 16.754 85.133 16.906C84.861 17.058 84.609 17.264 84.377 17.524V22H83.303V15.922H83.945C84.097 15.922 84.191 15.996 84.227 16.144L84.311 16.804ZM92.1124 19.03C92.3284 19.03 92.5184 19 92.6824 18.94C92.8464 18.88 92.9844 18.796 93.0964 18.688C93.2084 18.58 93.2924 18.452 93.3484 18.304C93.4044 18.152 93.4324 17.986 93.4324 17.806C93.4324 17.434 93.3184 17.138 93.0904 16.918C92.8664 16.698 92.5404 16.588 92.1124 16.588C91.6804 16.588 91.3504 16.698 91.1224 16.918C90.8984 17.138 90.7864 17.434 90.7864 17.806C90.7864 17.986 90.8144 18.152 90.8704 18.304C90.9304 18.452 91.0164 18.58 91.1284 18.688C91.2404 18.796 91.3784 18.88 91.5424 18.94C91.7064 19 91.8964 19.03 92.1124 19.03ZM94.0384 22.33C94.0384 22.182 93.9964 22.062 93.9124 21.97C93.8284 21.878 93.7144 21.806 93.5704 21.754C93.4304 21.702 93.2664 21.666 93.0784 21.646C92.8904 21.622 92.6904 21.604 92.4784 21.592C92.2704 21.58 92.0584 21.568 91.8424 21.556C91.6264 21.544 91.4184 21.524 91.2184 21.496C90.9944 21.6 90.8104 21.732 90.6664 21.892C90.5264 22.048 90.4564 22.232 90.4564 22.444C90.4564 22.58 90.4904 22.706 90.5584 22.822C90.6304 22.942 90.7384 23.044 90.8824 23.128C91.0264 23.216 91.2064 23.284 91.4224 23.332C91.6424 23.384 91.9004 23.41 92.1964 23.41C92.4844 23.41 92.7424 23.384 92.9704 23.332C93.1984 23.28 93.3904 23.206 93.5464 23.11C93.7064 23.014 93.8284 22.9 93.9124 22.768C93.9964 22.636 94.0384 22.49 94.0384 22.33ZM95.1244 16.162V16.558C95.1244 16.69 95.0404 16.774 94.8724 16.81L94.1824 16.9C94.3184 17.164 94.3864 17.456 94.3864 17.776C94.3864 18.072 94.3284 18.342 94.2124 18.586C94.1004 18.826 93.9444 19.032 93.7444 19.204C93.5444 19.376 93.3044 19.508 93.0244 19.6C92.7444 19.692 92.4404 19.738 92.1124 19.738C91.8284 19.738 91.5604 19.704 91.3084 19.636C91.1804 19.716 91.0824 19.802 91.0144 19.894C90.9464 19.982 90.9124 20.072 90.9124 20.164C90.9124 20.308 90.9704 20.418 91.0864 20.494C91.2064 20.566 91.3624 20.618 91.5544 20.65C91.7464 20.682 91.9644 20.702 92.2084 20.71C92.4564 20.718 92.7084 20.732 92.9644 20.752C93.2244 20.768 93.4764 20.798 93.7204 20.842C93.9684 20.886 94.1884 20.958 94.3804 21.058C94.5724 21.158 94.7264 21.296 94.8424 21.472C94.9624 21.648 95.0224 21.876 95.0224 22.156C95.0224 22.416 94.9564 22.668 94.8244 22.912C94.6964 23.156 94.5104 23.372 94.2664 23.56C94.0224 23.752 93.7224 23.904 93.3664 24.016C93.0144 24.132 92.6164 24.19 92.1724 24.19C91.7284 24.19 91.3404 24.146 91.0084 24.058C90.6764 23.97 90.4004 23.852 90.1804 23.704C89.9604 23.556 89.7944 23.384 89.6824 23.188C89.5744 22.996 89.5204 22.794 89.5204 22.582C89.5204 22.282 89.6144 22.028 89.8024 21.82C89.9904 21.612 90.2484 21.446 90.5764 21.322C90.3964 21.242 90.2524 21.136 90.1444 21.004C90.0404 20.868 89.9884 20.686 89.9884 20.458C89.9884 20.37 90.0044 20.28 90.0364 20.188C90.0684 20.092 90.1164 19.998 90.1804 19.906C90.2484 19.81 90.3304 19.72 90.4264 19.636C90.5224 19.552 90.6344 19.478 90.7624 19.414C90.4624 19.246 90.2284 19.024 90.0604 18.748C89.8924 18.468 89.8084 18.144 89.8084 17.776C89.8084 17.48 89.8644 17.212 89.9764 16.972C90.0924 16.728 90.2524 16.522 90.4564 16.354C90.6604 16.182 90.9024 16.05 91.1824 15.958C91.4664 15.866 91.7764 15.82 92.1124 15.82C92.3764 15.82 92.6224 15.85 92.8504 15.91C93.0784 15.966 93.2864 16.05 93.4744 16.162H95.1244ZM102.839 16.924C102.791 17.012 102.717 17.056 102.617 17.056C102.557 17.056 102.489 17.034 102.413 16.99C102.337 16.946 102.243 16.898 102.131 16.846C102.023 16.79 101.893 16.74 101.741 16.696C101.589 16.648 101.409 16.624 101.201 16.624C101.021 16.624 100.859 16.648 100.715 16.696C100.571 16.74 100.447 16.802 100.343 16.882C100.243 16.962 100.165 17.056 100.109 17.164C100.057 17.268 100.031 17.382 100.031 17.506C100.031 17.662 100.075 17.792 100.163 17.896C100.255 18 100.375 18.09 100.523 18.166C100.671 18.242 100.839 18.31 101.027 18.37C101.215 18.426 101.407 18.488 101.603 18.556C101.803 18.62 101.997 18.692 102.185 18.772C102.373 18.852 102.541 18.952 102.689 19.072C102.837 19.192 102.955 19.34 103.043 19.516C103.135 19.688 103.181 19.896 103.181 20.14C103.181 20.42 103.131 20.68 103.031 20.92C102.931 21.156 102.783 21.362 102.587 21.538C102.391 21.71 102.151 21.846 101.867 21.946C101.583 22.046 101.255 22.096 100.883 22.096C100.459 22.096 100.075 22.028 99.7311 21.892C99.3871 21.752 99.0951 21.574 98.8551 21.358L99.1071 20.95C99.1391 20.898 99.1771 20.858 99.2211 20.83C99.2651 20.802 99.3211 20.788 99.3891 20.788C99.4611 20.788 99.5371 20.816 99.6171 20.872C99.6971 20.928 99.7931 20.99 99.9051 21.058C100.021 21.126 100.161 21.188 100.325 21.244C100.489 21.3 100.693 21.328 100.937 21.328C101.145 21.328 101.327 21.302 101.483 21.25C101.639 21.194 101.769 21.12 101.873 21.028C101.977 20.936 102.053 20.83 102.101 20.71C102.153 20.59 102.179 20.462 102.179 20.326C102.179 20.158 102.133 20.02 102.041 19.912C101.953 19.8 101.835 19.706 101.687 19.63C101.539 19.55 101.369 19.482 101.177 19.426C100.989 19.366 100.795 19.304 100.595 19.24C100.399 19.176 100.205 19.104 100.013 19.024C99.8251 18.94 99.6571 18.836 99.5091 18.712C99.3611 18.588 99.2411 18.436 99.1491 18.256C99.0611 18.072 99.0171 17.85 99.0171 17.59C99.0171 17.358 99.0651 17.136 99.1611 16.924C99.2571 16.708 99.3971 16.52 99.5811 16.36C99.7651 16.196 99.9911 16.066 100.259 15.97C100.527 15.874 100.833 15.826 101.177 15.826C101.577 15.826 101.935 15.89 102.251 16.018C102.571 16.142 102.847 16.314 103.079 16.534L102.839 16.924ZM107.053 15.826C107.497 15.826 107.897 15.9 108.253 16.048C108.609 16.196 108.913 16.406 109.165 16.678C109.417 16.95 109.609 17.28 109.741 17.668C109.877 18.052 109.945 18.482 109.945 18.958C109.945 19.438 109.877 19.87 109.741 20.254C109.609 20.638 109.417 20.966 109.165 21.238C108.913 21.51 108.609 21.72 108.253 21.868C107.897 22.012 107.497 22.084 107.053 22.084C106.605 22.084 106.201 22.012 105.841 21.868C105.485 21.72 105.181 21.51 104.929 21.238C104.677 20.966 104.483 20.638 104.347 20.254C104.215 19.87 104.149 19.438 104.149 18.958C104.149 18.482 104.215 18.052 104.347 17.668C104.483 17.28 104.677 16.95 104.929 16.678C105.181 16.406 105.485 16.196 105.841 16.048C106.201 15.9 106.605 15.826 107.053 15.826ZM107.053 21.25C107.653 21.25 108.101 21.05 108.397 20.65C108.693 20.246 108.841 19.684 108.841 18.964C108.841 18.24 108.693 17.676 108.397 17.272C108.101 16.868 107.653 16.666 107.053 16.666C106.749 16.666 106.483 16.718 106.255 16.822C106.031 16.926 105.843 17.076 105.691 17.272C105.543 17.468 105.431 17.71 105.355 17.998C105.283 18.282 105.247 18.604 105.247 18.964C105.247 19.684 105.395 20.246 105.691 20.65C105.991 21.05 106.445 21.25 107.053 21.25ZM113.861 15.826C114.305 15.826 114.705 15.9 115.061 16.048C115.417 16.196 115.721 16.406 115.973 16.678C116.225 16.95 116.417 17.28 116.549 17.668C116.685 18.052 116.753 18.482 116.753 18.958C116.753 19.438 116.685 19.87 116.549 20.254C116.417 20.638 116.225 20.966 115.973 21.238C115.721 21.51 115.417 21.72 115.061 21.868C114.705 22.012 114.305 22.084 113.861 22.084C113.413 22.084 113.009 22.012 112.649 21.868C112.293 21.72 111.989 21.51 111.737 21.238C111.485 20.966 111.291 20.638 111.155 20.254C111.023 19.87 110.957 19.438 110.957 18.958C110.957 18.482 111.023 18.052 111.155 17.668C111.291 17.28 111.485 16.95 111.737 16.678C111.989 16.406 112.293 16.196 112.649 16.048C113.009 15.9 113.413 15.826 113.861 15.826ZM113.861 21.25C114.461 21.25 114.909 21.05 115.205 20.65C115.501 20.246 115.649 19.684 115.649 18.964C115.649 18.24 115.501 17.676 115.205 17.272C114.909 16.868 114.461 16.666 113.861 16.666C113.557 16.666 113.291 16.718 113.063 16.822C112.839 16.926 112.651 17.076 112.499 17.272C112.351 17.468 112.239 17.71 112.163 17.998C112.091 18.282 112.055 18.604 112.055 18.964C112.055 19.684 112.203 20.246 112.499 20.65C112.799 21.05 113.253 21.25 113.861 21.25ZM119.116 16.804C119.248 16.656 119.388 16.522 119.536 16.402C119.684 16.282 119.84 16.18 120.004 16.096C120.172 16.008 120.348 15.942 120.532 15.898C120.72 15.85 120.922 15.826 121.138 15.826C121.47 15.826 121.762 15.882 122.014 15.994C122.27 16.102 122.482 16.258 122.65 16.462C122.822 16.662 122.952 16.904 123.04 17.188C123.128 17.472 123.172 17.786 123.172 18.13V22H122.098V18.13C122.098 17.67 121.992 17.314 121.78 17.062C121.572 16.806 121.254 16.678 120.826 16.678C120.51 16.678 120.214 16.754 119.938 16.906C119.666 17.058 119.414 17.264 119.182 17.524V22H118.108V15.922H118.75C118.902 15.922 118.996 15.996 119.032 16.144L119.116 16.804ZM130.431 15.826C130.875 15.826 131.275 15.9 131.631 16.048C131.987 16.196 132.291 16.406 132.543 16.678C132.795 16.95 132.987 17.28 133.119 17.668C133.255 18.052 133.323 18.482 133.323 18.958C133.323 19.438 133.255 19.87 133.119 20.254C132.987 20.638 132.795 20.966 132.543 21.238C132.291 21.51 131.987 21.72 131.631 21.868C131.275 22.012 130.875 22.084 130.431 22.084C129.983 22.084 129.579 22.012 129.219 21.868C128.863 21.72 128.559 21.51 128.307 21.238C128.055 20.966 127.861 20.638 127.725 20.254C127.593 19.87 127.527 19.438 127.527 18.958C127.527 18.482 127.593 18.052 127.725 17.668C127.861 17.28 128.055 16.95 128.307 16.678C128.559 16.406 128.863 16.196 129.219 16.048C129.579 15.9 129.983 15.826 130.431 15.826ZM130.431 21.25C131.031 21.25 131.479 21.05 131.775 20.65C132.071 20.246 132.219 19.684 132.219 18.964C132.219 18.24 132.071 17.676 131.775 17.272C131.479 16.868 131.031 16.666 130.431 16.666C130.127 16.666 129.861 16.718 129.633 16.822C129.409 16.926 129.221 17.076 129.069 17.272C128.921 17.468 128.809 17.71 128.733 17.998C128.661 18.282 128.625 18.604 128.625 18.964C128.625 19.684 128.773 20.246 129.069 20.65C129.369 21.05 129.823 21.25 130.431 21.25ZM135.686 16.804C135.818 16.656 135.958 16.522 136.106 16.402C136.254 16.282 136.41 16.18 136.574 16.096C136.742 16.008 136.918 15.942 137.102 15.898C137.29 15.85 137.492 15.826 137.708 15.826C138.04 15.826 138.332 15.882 138.584 15.994C138.84 16.102 139.052 16.258 139.22 16.462C139.392 16.662 139.522 16.904 139.61 17.188C139.698 17.472 139.742 17.786 139.742 18.13V22H138.668V18.13C138.668 17.67 138.562 17.314 138.35 17.062C138.142 16.806 137.824 16.678 137.396 16.678C137.08 16.678 136.784 16.754 136.508 16.906C136.236 17.058 135.984 17.264 135.752 17.524V22H134.678V15.922H135.32C135.472 15.922 135.566 15.996 135.602 16.144L135.686 16.804ZM146.306 22.096C145.826 22.096 145.456 21.962 145.196 21.694C144.94 21.426 144.812 21.04 144.812 20.536V16.816H144.08C144.016 16.816 143.962 16.798 143.918 16.762C143.874 16.722 143.852 16.662 143.852 16.582V16.156L144.848 16.03L145.094 14.152C145.106 14.092 145.132 14.044 145.172 14.008C145.216 13.968 145.272 13.948 145.34 13.948H145.88V16.042H147.638V16.816H145.88V20.464C145.88 20.72 145.942 20.91 146.066 21.034C146.19 21.158 146.35 21.22 146.546 21.22C146.658 21.22 146.754 21.206 146.834 21.178C146.918 21.146 146.99 21.112 147.05 21.076C147.11 21.04 147.16 21.008 147.2 20.98C147.244 20.948 147.282 20.932 147.314 20.932C147.37 20.932 147.42 20.966 147.464 21.034L147.776 21.544C147.592 21.716 147.37 21.852 147.11 21.952C146.85 22.048 146.582 22.096 146.306 22.096ZM149.815 16.732C150.075 16.456 150.363 16.236 150.679 16.072C150.995 15.908 151.359 15.826 151.771 15.826C152.103 15.826 152.395 15.882 152.647 15.994C152.903 16.102 153.115 16.258 153.283 16.462C153.455 16.662 153.585 16.904 153.673 17.188C153.761 17.472 153.805 17.786 153.805 18.13V22H152.731V18.13C152.731 17.67 152.625 17.314 152.413 17.062C152.205 16.806 151.887 16.678 151.459 16.678C151.143 16.678 150.847 16.754 150.571 16.906C150.299 17.058 150.047 17.264 149.815 17.524V22H148.741V13.162H149.815V16.732ZM159.5 18.298C159.5 18.05 159.464 17.824 159.392 17.62C159.324 17.412 159.222 17.234 159.086 17.086C158.954 16.934 158.792 16.818 158.6 16.738C158.408 16.654 158.19 16.612 157.946 16.612C157.434 16.612 157.028 16.762 156.728 17.062C156.432 17.358 156.248 17.77 156.176 18.298H159.5ZM160.364 21.148C160.232 21.308 160.074 21.448 159.89 21.568C159.706 21.684 159.508 21.78 159.296 21.856C159.088 21.932 158.872 21.988 158.648 22.024C158.424 22.064 158.202 22.084 157.982 22.084C157.562 22.084 157.174 22.014 156.818 21.874C156.466 21.73 156.16 21.522 155.9 21.25C155.644 20.974 155.444 20.634 155.3 20.23C155.156 19.826 155.084 19.362 155.084 18.838C155.084 18.414 155.148 18.018 155.276 17.65C155.408 17.282 155.596 16.964 155.84 16.696C156.084 16.424 156.382 16.212 156.734 16.06C157.086 15.904 157.482 15.826 157.922 15.826C158.286 15.826 158.622 15.888 158.93 16.012C159.242 16.132 159.51 16.308 159.734 16.54C159.962 16.768 160.14 17.052 160.268 17.392C160.396 17.728 160.46 18.112 160.46 18.544C160.46 18.712 160.442 18.824 160.406 18.88C160.37 18.936 160.302 18.964 160.202 18.964H156.14C156.152 19.348 156.204 19.682 156.296 19.966C156.392 20.25 156.524 20.488 156.692 20.68C156.86 20.868 157.06 21.01 157.292 21.106C157.524 21.198 157.784 21.244 158.072 21.244C158.34 21.244 158.57 21.214 158.762 21.154C158.958 21.09 159.126 21.022 159.266 20.95C159.406 20.878 159.522 20.812 159.614 20.752C159.71 20.688 159.792 20.656 159.86 20.656C159.948 20.656 160.016 20.69 160.064 20.758L160.364 21.148Z" fill="white"/>
<path d="M62.4 37.632L60.992 33.784C60.9227 33.6133 60.8507 33.4107 60.776 33.176C60.7013 32.9413 60.6267 32.688 60.552 32.416C60.4827 32.688 60.4107 32.944 60.336 33.184C60.2613 33.4187 60.1893 33.624 60.12 33.8L58.72 37.632H62.4ZM66.2 42H64.536C64.3493 42 64.1973 41.9547 64.08 41.864C63.9627 41.768 63.8747 41.6507 63.816 41.512L62.952 39.152H58.16L57.296 41.512C57.2533 41.6347 57.1707 41.7467 57.048 41.848C56.9253 41.9493 56.7733 42 56.592 42H54.912L59.464 30.432H61.656L66.2 42ZM69.0458 39.872C69.2698 40.144 69.5124 40.336 69.7738 40.448C70.0404 40.56 70.3284 40.616 70.6378 40.616C70.9364 40.616 71.2058 40.56 71.4458 40.448C71.6858 40.336 71.8884 40.1653 72.0538 39.936C72.2244 39.7067 72.3551 39.4187 72.4458 39.072C72.5364 38.72 72.5818 38.3067 72.5818 37.832C72.5818 37.352 72.5418 36.9467 72.4618 36.616C72.3871 36.28 72.2778 36.008 72.1338 35.8C71.9898 35.592 71.8138 35.44 71.6058 35.344C71.4031 35.248 71.1711 35.2 70.9098 35.2C70.4991 35.2 70.1498 35.288 69.8618 35.464C69.5738 35.6347 69.3018 35.8773 69.0458 36.192V39.872ZM68.9418 34.912C69.2778 34.5333 69.6591 34.2267 70.0858 33.992C70.5124 33.7573 71.0138 33.64 71.5898 33.64C72.0378 33.64 72.4458 33.7333 72.8138 33.92C73.1871 34.1067 73.5071 34.3787 73.7738 34.736C74.0458 35.088 74.2538 35.5253 74.3978 36.048C74.5471 36.5653 74.6218 37.16 74.6218 37.832C74.6218 38.4453 74.5391 39.0133 74.3738 39.536C74.2084 40.0587 73.9711 40.512 73.6618 40.896C73.3578 41.28 72.9871 41.5813 72.5498 41.8C72.1178 42.0133 71.6324 42.12 71.0938 42.12C70.6351 42.12 70.2431 42.0507 69.9178 41.912C69.5924 41.768 69.3018 41.5707 69.0458 41.32V44.68H67.0698V33.792H68.2778C68.5338 33.792 68.7018 33.912 68.7818 34.152L68.9418 34.912ZM78.1395 39.872C78.3635 40.144 78.6062 40.336 78.8675 40.448C79.1342 40.56 79.4222 40.616 79.7315 40.616C80.0302 40.616 80.2995 40.56 80.5395 40.448C80.7795 40.336 80.9822 40.1653 81.1475 39.936C81.3182 39.7067 81.4488 39.4187 81.5395 39.072C81.6302 38.72 81.6755 38.3067 81.6755 37.832C81.6755 37.352 81.6355 36.9467 81.5555 36.616C81.4808 36.28 81.3715 36.008 81.2275 35.8C81.0835 35.592 80.9075 35.44 80.6995 35.344C80.4968 35.248 80.2648 35.2 80.0035 35.2C79.5928 35.2 79.2435 35.288 78.9555 35.464C78.6675 35.6347 78.3955 35.8773 78.1395 36.192V39.872ZM78.0355 34.912C78.3715 34.5333 78.7528 34.2267 79.1795 33.992C79.6062 33.7573 80.1075 33.64 80.6835 33.64C81.1315 33.64 81.5395 33.7333 81.9075 33.92C82.2808 34.1067 82.6008 34.3787 82.8675 34.736C83.1395 35.088 83.3475 35.5253 83.4915 36.048C83.6408 36.5653 83.7155 37.16 83.7155 37.832C83.7155 38.4453 83.6328 39.0133 83.4675 39.536C83.3022 40.0587 83.0648 40.512 82.7555 40.896C82.4515 41.28 82.0808 41.5813 81.6435 41.8C81.2115 42.0133 80.7262 42.12 80.1875 42.12C79.7288 42.12 79.3368 42.0507 79.0115 41.912C78.6862 41.768 78.3955 41.5707 78.1395 41.32V44.68H76.1635V33.792H77.3715C77.6275 33.792 77.7955 33.912 77.8755 34.152L78.0355 34.912ZM95.6199 32.536C95.5559 32.648 95.4865 32.7307 95.4119 32.784C95.3425 32.832 95.2545 32.856 95.1479 32.856C95.0359 32.856 94.9132 32.816 94.7799 32.736C94.6519 32.6507 94.4972 32.5573 94.3159 32.456C94.1345 32.3547 93.9212 32.264 93.6759 32.184C93.4359 32.0987 93.1505 32.056 92.8199 32.056C92.5212 32.056 92.2599 32.0933 92.0359 32.168C91.8119 32.2373 91.6225 32.336 91.4679 32.464C91.3185 32.592 91.2065 32.7467 91.1319 32.928C91.0572 33.104 91.0199 33.2987 91.0199 33.512C91.0199 33.784 91.0945 34.0107 91.2439 34.192C91.3985 34.3733 91.6012 34.528 91.8519 34.656C92.1025 34.784 92.3879 34.8987 92.7079 35C93.0279 35.1013 93.3559 35.2107 93.6919 35.328C94.0279 35.44 94.3559 35.5733 94.6759 35.728C94.9959 35.8773 95.2812 36.0693 95.5319 36.304C95.7825 36.5333 95.9825 36.816 96.1319 37.152C96.2865 37.488 96.3639 37.896 96.3639 38.376C96.3639 38.8987 96.2732 39.3893 96.0919 39.848C95.9159 40.3013 95.6545 40.6987 95.3079 41.04C94.9665 41.376 94.5479 41.6427 94.0519 41.84C93.5559 42.032 92.9879 42.128 92.3479 42.128C91.9799 42.128 91.6172 42.0907 91.2599 42.016C90.9025 41.9467 90.5585 41.8453 90.2279 41.712C89.9025 41.5787 89.5959 41.4187 89.3079 41.232C89.0199 41.0453 88.7639 40.8373 88.5399 40.608L89.1719 39.576C89.2252 39.5013 89.2945 39.44 89.3799 39.392C89.4652 39.3387 89.5559 39.312 89.6519 39.312C89.7852 39.312 89.9292 39.368 90.0839 39.48C90.2385 39.5867 90.4225 39.7067 90.6359 39.84C90.8492 39.9733 91.0972 40.096 91.3799 40.208C91.6679 40.3147 92.0119 40.368 92.4119 40.368C93.0252 40.368 93.4999 40.224 93.8359 39.936C94.1719 39.6427 94.3399 39.224 94.3399 38.68C94.3399 38.376 94.2625 38.128 94.1079 37.936C93.9585 37.744 93.7585 37.584 93.5079 37.456C93.2572 37.3227 92.9719 37.2107 92.6519 37.12C92.3319 37.0293 92.0065 36.9307 91.6759 36.824C91.3452 36.7173 91.0199 36.5893 90.6999 36.44C90.3799 36.2907 90.0945 36.096 89.8439 35.856C89.5932 35.616 89.3905 35.3173 89.2359 34.96C89.0865 34.5973 89.0119 34.152 89.0119 33.624C89.0119 33.2027 89.0945 32.792 89.2599 32.392C89.4305 31.992 89.6759 31.6373 89.9959 31.328C90.3159 31.0187 90.7105 30.7707 91.1799 30.584C91.6492 30.3973 92.1879 30.304 92.7959 30.304C93.4785 30.304 94.1079 30.4107 94.6839 30.624C95.2599 30.8373 95.7505 31.136 96.1559 31.52L95.6199 32.536ZM100.306 42.128C99.5911 42.128 99.0418 41.928 98.6578 41.528C98.2791 41.1227 98.0898 40.5653 98.0898 39.856V35.272H97.2498C97.1431 35.272 97.0524 35.2373 96.9778 35.168C96.9031 35.0987 96.8658 34.9947 96.8658 34.856V34.072L98.1858 33.856L98.6018 31.616C98.6284 31.5093 98.6791 31.4267 98.7538 31.368C98.8284 31.3093 98.9244 31.28 99.0418 31.28H100.066V33.864H102.258V35.272H100.066V39.72C100.066 39.976 100.127 40.176 100.25 40.32C100.378 40.464 100.551 40.536 100.77 40.536C100.892 40.536 100.994 40.5227 101.074 40.496C101.159 40.464 101.231 40.432 101.29 40.4C101.354 40.368 101.41 40.3387 101.458 40.312C101.506 40.28 101.554 40.264 101.602 40.264C101.66 40.264 101.708 40.28 101.746 40.312C101.783 40.3387 101.823 40.3813 101.866 40.44L102.458 41.4C102.17 41.64 101.839 41.8213 101.466 41.944C101.092 42.0667 100.706 42.128 100.306 42.128ZM107.092 33.664C107.7 33.664 108.252 33.7627 108.748 33.96C109.25 34.1573 109.676 34.4373 110.028 34.8C110.386 35.1627 110.66 35.6053 110.852 36.128C111.044 36.6507 111.14 37.2347 111.14 37.88C111.14 38.5307 111.044 39.1173 110.852 39.64C110.66 40.1627 110.386 40.608 110.028 40.976C109.676 41.344 109.25 41.6267 108.748 41.824C108.252 42.0213 107.7 42.12 107.092 42.12C106.479 42.12 105.922 42.0213 105.42 41.824C104.919 41.6267 104.49 41.344 104.132 40.976C103.78 40.608 103.506 40.1627 103.308 39.64C103.116 39.1173 103.02 38.5307 103.02 37.88C103.02 37.2347 103.116 36.6507 103.308 36.128C103.506 35.6053 103.78 35.1627 104.132 34.8C104.49 34.4373 104.919 34.1573 105.42 33.96C105.922 33.7627 106.479 33.664 107.092 33.664ZM107.092 40.6C107.775 40.6 108.279 40.3707 108.604 39.912C108.935 39.4533 109.1 38.7813 109.1 37.896C109.1 37.0107 108.935 36.336 108.604 35.872C108.279 35.408 107.775 35.176 107.092 35.176C106.399 35.176 105.884 35.4107 105.548 35.88C105.218 36.344 105.052 37.016 105.052 37.896C105.052 38.776 105.218 39.448 105.548 39.912C105.884 40.3707 106.399 40.6 107.092 40.6ZM114.512 35.216C114.768 34.7253 115.072 34.3413 115.424 34.064C115.776 33.7813 116.192 33.64 116.672 33.64C117.051 33.64 117.355 33.7227 117.584 33.888L117.456 35.368C117.429 35.464 117.389 35.5333 117.336 35.576C117.288 35.6133 117.221 35.632 117.136 35.632C117.056 35.632 116.936 35.6187 116.776 35.592C116.621 35.5653 116.469 35.552 116.32 35.552C116.101 35.552 115.907 35.584 115.736 35.648C115.565 35.712 115.411 35.8053 115.272 35.928C115.139 36.0453 115.019 36.1893 114.912 36.36C114.811 36.5307 114.715 36.7253 114.624 36.944V42H112.648V33.792H113.808C114.011 33.792 114.152 33.8293 114.232 33.904C114.312 33.9733 114.365 34.1013 114.392 34.288L114.512 35.216ZM123.67 36.952C123.67 36.696 123.633 36.456 123.558 36.232C123.489 36.0027 123.382 35.8027 123.238 35.632C123.094 35.4613 122.91 35.328 122.686 35.232C122.468 35.1307 122.212 35.08 121.918 35.08C121.348 35.08 120.897 35.2427 120.566 35.568C120.241 35.8933 120.033 36.3547 119.942 36.952H123.67ZM119.902 38.144C119.934 38.5653 120.009 38.9307 120.126 39.24C120.244 39.544 120.398 39.7973 120.59 40C120.782 40.1973 121.009 40.3467 121.27 40.448C121.537 40.544 121.83 40.592 122.15 40.592C122.47 40.592 122.745 40.5547 122.974 40.48C123.209 40.4053 123.412 40.3227 123.582 40.232C123.758 40.1413 123.91 40.0587 124.038 39.984C124.172 39.9093 124.3 39.872 124.422 39.872C124.588 39.872 124.71 39.9333 124.79 40.056L125.358 40.776C125.14 41.032 124.894 41.248 124.622 41.424C124.35 41.5947 124.065 41.7333 123.766 41.84C123.473 41.9413 123.172 42.0133 122.862 42.056C122.558 42.0987 122.262 42.12 121.974 42.12C121.404 42.12 120.873 42.0267 120.382 41.84C119.892 41.648 119.465 41.368 119.102 41C118.74 40.6267 118.454 40.168 118.246 39.624C118.038 39.0747 117.934 38.44 117.934 37.72C117.934 37.16 118.025 36.6347 118.206 36.144C118.388 35.648 118.646 35.2187 118.982 34.856C119.324 34.488 119.737 34.1973 120.222 33.984C120.713 33.7707 121.265 33.664 121.878 33.664C122.396 33.664 122.873 33.7467 123.31 33.912C123.748 34.0773 124.124 34.32 124.438 34.64C124.753 34.9547 124.998 35.344 125.174 35.808C125.356 36.2667 125.446 36.792 125.446 37.384C125.446 37.6827 125.414 37.8853 125.35 37.992C125.286 38.0933 125.164 38.144 124.982 38.144H119.902Z" fill="white"/>
<defs>
<clipPath id="clip0_1303_3966">
<rect width="20" height="20" fill="white" transform="translate(19 18)"/>
</clipPath>
</defs>
</svg>
