<svg width="176" height="56" viewBox="0 0 176 56" fill="none" xmlns="http://www.w3.org/2000/svg">
<rect width="176" height="56" rx="8" fill="white"/>
<g clip-path="url(#clip0_1303_3976)">
<path d="M36.7513 31.2712C39.2873 29.8788 41.2097 28.8177 41.3754 28.7352C41.9055 28.4534 42.4529 27.7073 41.3754 27.1277C41.0275 26.9455 39.1545 25.9175 36.7513 24.5918L33.4199 27.9563L36.7513 31.2711V31.2712Z" fill="#FFD900"/>
<path d="M33.4196 27.957L22.812 38.6479C23.061 38.6809 23.3421 38.6148 23.6735 38.4327C24.3693 38.0518 31.7452 34.0238 36.751 31.2727L33.4196 27.957Z" fill="#F43249"/>
<path d="M33.4192 27.9566L36.7506 24.6087C36.7506 24.6087 24.4192 17.8789 23.6731 17.4816C23.392 17.3151 23.077 17.2657 22.7952 17.3151L33.4192 27.9566Z" fill="#00EE76"/>
<path d="M33.4196 27.9578L22.7955 17.3164C22.3644 17.4161 22 17.797 22 18.5761V37.389C22 38.102 22.282 38.6156 22.812 38.6652L33.4196 27.9578Z" fill="#00D3FF"/>
</g>
<path d="M65.134 20.224C65.198 20.224 65.254 20.25 65.302 20.302L65.764 20.8C65.412 21.208 64.984 21.526 64.48 21.754C63.98 21.982 63.374 22.096 62.662 22.096C62.046 22.096 61.486 21.99 60.982 21.778C60.478 21.562 60.048 21.262 59.692 20.878C59.336 20.49 59.06 20.026 58.864 19.486C58.668 18.946 58.57 18.352 58.57 17.704C58.57 17.056 58.672 16.462 58.876 15.922C59.08 15.382 59.366 14.918 59.734 14.53C60.106 14.142 60.55 13.842 61.066 13.63C61.582 13.414 62.152 13.306 62.776 13.306C63.388 13.306 63.928 13.404 64.396 13.6C64.864 13.796 65.276 14.062 65.632 14.398L65.248 14.932C65.224 14.972 65.192 15.006 65.152 15.034C65.116 15.058 65.066 15.07 65.002 15.07C64.93 15.07 64.842 15.032 64.738 14.956C64.634 14.876 64.498 14.788 64.33 14.692C64.162 14.596 63.952 14.51 63.7 14.434C63.448 14.354 63.138 14.314 62.77 14.314C62.326 14.314 61.92 14.392 61.552 14.548C61.184 14.7 60.866 14.922 60.598 15.214C60.334 15.506 60.128 15.862 59.98 16.282C59.832 16.702 59.758 17.176 59.758 17.704C59.758 18.24 59.834 18.718 59.986 19.138C60.142 19.558 60.352 19.914 60.616 20.206C60.884 20.494 61.198 20.714 61.558 20.866C61.922 21.018 62.314 21.094 62.734 21.094C62.99 21.094 63.22 21.08 63.424 21.052C63.632 21.02 63.822 20.972 63.994 20.908C64.17 20.844 64.332 20.764 64.48 20.668C64.632 20.568 64.782 20.45 64.93 20.314C64.998 20.254 65.066 20.224 65.134 20.224ZM69.3064 15.826C69.7504 15.826 70.1504 15.9 70.5064 16.048C70.8624 16.196 71.1664 16.406 71.4184 16.678C71.6704 16.95 71.8624 17.28 71.9944 17.668C72.1304 18.052 72.1984 18.482 72.1984 18.958C72.1984 19.438 72.1304 19.87 71.9944 20.254C71.8624 20.638 71.6704 20.966 71.4184 21.238C71.1664 21.51 70.8624 21.72 70.5064 21.868C70.1504 22.012 69.7504 22.084 69.3064 22.084C68.8584 22.084 68.4544 22.012 68.0944 21.868C67.7384 21.72 67.4344 21.51 67.1824 21.238C66.9304 20.966 66.7364 20.638 66.6004 20.254C66.4684 19.87 66.4024 19.438 66.4024 18.958C66.4024 18.482 66.4684 18.052 66.6004 17.668C66.7364 17.28 66.9304 16.95 67.1824 16.678C67.4344 16.406 67.7384 16.196 68.0944 16.048C68.4544 15.9 68.8584 15.826 69.3064 15.826ZM69.3064 21.25C69.9064 21.25 70.3544 21.05 70.6504 20.65C70.9464 20.246 71.0944 19.684 71.0944 18.964C71.0944 18.24 70.9464 17.676 70.6504 17.272C70.3544 16.868 69.9064 16.666 69.3064 16.666C69.0024 16.666 68.7364 16.718 68.5084 16.822C68.2844 16.926 68.0964 17.076 67.9444 17.272C67.7964 17.468 67.6844 17.71 67.6084 17.998C67.5364 18.282 67.5004 18.604 67.5004 18.964C67.5004 19.684 67.6484 20.246 67.9444 20.65C68.2444 21.05 68.6984 21.25 69.3064 21.25ZM73.553 22V15.922H74.195C74.347 15.922 74.441 15.996 74.477 16.144L74.555 16.768C74.779 16.492 75.031 16.266 75.311 16.09C75.591 15.914 75.915 15.826 76.283 15.826C76.691 15.826 77.021 15.94 77.273 16.168C77.529 16.396 77.713 16.704 77.825 17.092C77.913 16.872 78.025 16.682 78.161 16.522C78.301 16.362 78.457 16.23 78.629 16.126C78.801 16.022 78.983 15.946 79.175 15.898C79.371 15.85 79.569 15.826 79.769 15.826C80.089 15.826 80.373 15.878 80.621 15.982C80.873 16.082 81.085 16.23 81.257 16.426C81.433 16.622 81.567 16.864 81.659 17.152C81.751 17.436 81.797 17.762 81.797 18.13V22H80.723V18.13C80.723 17.654 80.619 17.294 80.411 17.05C80.203 16.802 79.903 16.678 79.511 16.678C79.335 16.678 79.167 16.71 79.007 16.774C78.851 16.834 78.713 16.924 78.593 17.044C78.473 17.164 78.377 17.316 78.305 17.5C78.237 17.68 78.203 17.89 78.203 18.13V22H77.129V18.13C77.129 17.642 77.031 17.278 76.835 17.038C76.639 16.798 76.353 16.678 75.977 16.678C75.713 16.678 75.469 16.75 75.245 16.894C75.021 17.034 74.815 17.226 74.627 17.47V22H73.553ZM84.5482 15.922V22H83.4802V15.922H84.5482ZM84.7762 14.014C84.7762 14.118 84.7542 14.216 84.7102 14.308C84.6702 14.396 84.6142 14.476 84.5422 14.548C84.4742 14.616 84.3922 14.67 84.2962 14.71C84.2042 14.75 84.1062 14.77 84.0022 14.77C83.8982 14.77 83.8002 14.75 83.7082 14.71C83.6202 14.67 83.5422 14.616 83.4742 14.548C83.4062 14.476 83.3522 14.396 83.3122 14.308C83.2722 14.216 83.2522 14.118 83.2522 14.014C83.2522 13.91 83.2722 13.812 83.3122 13.72C83.3522 13.624 83.4062 13.542 83.4742 13.474C83.5422 13.402 83.6202 13.346 83.7082 13.306C83.8002 13.266 83.8982 13.246 84.0022 13.246C84.1062 13.246 84.2042 13.266 84.2962 13.306C84.3922 13.346 84.4742 13.402 84.5422 13.474C84.6142 13.542 84.6702 13.624 84.7102 13.72C84.7542 13.812 84.7762 13.91 84.7762 14.014ZM87.311 16.804C87.443 16.656 87.583 16.522 87.731 16.402C87.879 16.282 88.035 16.18 88.199 16.096C88.367 16.008 88.543 15.942 88.727 15.898C88.915 15.85 89.117 15.826 89.333 15.826C89.665 15.826 89.957 15.882 90.209 15.994C90.465 16.102 90.677 16.258 90.845 16.462C91.017 16.662 91.147 16.904 91.235 17.188C91.323 17.472 91.367 17.786 91.367 18.13V22H90.293V18.13C90.293 17.67 90.187 17.314 89.975 17.062C89.767 16.806 89.449 16.678 89.021 16.678C88.705 16.678 88.409 16.754 88.133 16.906C87.861 17.058 87.609 17.264 87.377 17.524V22H86.303V15.922H86.945C87.097 15.922 87.191 15.996 87.227 16.144L87.311 16.804ZM95.1124 19.03C95.3284 19.03 95.5184 19 95.6824 18.94C95.8464 18.88 95.9844 18.796 96.0964 18.688C96.2084 18.58 96.2924 18.452 96.3484 18.304C96.4044 18.152 96.4324 17.986 96.4324 17.806C96.4324 17.434 96.3184 17.138 96.0904 16.918C95.8664 16.698 95.5404 16.588 95.1124 16.588C94.6804 16.588 94.3504 16.698 94.1224 16.918C93.8984 17.138 93.7864 17.434 93.7864 17.806C93.7864 17.986 93.8144 18.152 93.8704 18.304C93.9304 18.452 94.0164 18.58 94.1284 18.688C94.2404 18.796 94.3784 18.88 94.5424 18.94C94.7064 19 94.8964 19.03 95.1124 19.03ZM97.0384 22.33C97.0384 22.182 96.9964 22.062 96.9124 21.97C96.8284 21.878 96.7144 21.806 96.5704 21.754C96.4304 21.702 96.2664 21.666 96.0784 21.646C95.8904 21.622 95.6904 21.604 95.4784 21.592C95.2704 21.58 95.0584 21.568 94.8424 21.556C94.6264 21.544 94.4184 21.524 94.2184 21.496C93.9944 21.6 93.8104 21.732 93.6664 21.892C93.5264 22.048 93.4564 22.232 93.4564 22.444C93.4564 22.58 93.4904 22.706 93.5584 22.822C93.6304 22.942 93.7384 23.044 93.8824 23.128C94.0264 23.216 94.2064 23.284 94.4224 23.332C94.6424 23.384 94.9004 23.41 95.1964 23.41C95.4844 23.41 95.7424 23.384 95.9704 23.332C96.1984 23.28 96.3904 23.206 96.5464 23.11C96.7064 23.014 96.8284 22.9 96.9124 22.768C96.9964 22.636 97.0384 22.49 97.0384 22.33ZM98.1244 16.162V16.558C98.1244 16.69 98.0404 16.774 97.8724 16.81L97.1824 16.9C97.3184 17.164 97.3864 17.456 97.3864 17.776C97.3864 18.072 97.3284 18.342 97.2124 18.586C97.1004 18.826 96.9444 19.032 96.7444 19.204C96.5444 19.376 96.3044 19.508 96.0244 19.6C95.7444 19.692 95.4404 19.738 95.1124 19.738C94.8284 19.738 94.5604 19.704 94.3084 19.636C94.1804 19.716 94.0824 19.802 94.0144 19.894C93.9464 19.982 93.9124 20.072 93.9124 20.164C93.9124 20.308 93.9704 20.418 94.0864 20.494C94.2064 20.566 94.3624 20.618 94.5544 20.65C94.7464 20.682 94.9644 20.702 95.2084 20.71C95.4564 20.718 95.7084 20.732 95.9644 20.752C96.2244 20.768 96.4764 20.798 96.7204 20.842C96.9684 20.886 97.1884 20.958 97.3804 21.058C97.5724 21.158 97.7264 21.296 97.8424 21.472C97.9624 21.648 98.0224 21.876 98.0224 22.156C98.0224 22.416 97.9564 22.668 97.8244 22.912C97.6964 23.156 97.5104 23.372 97.2664 23.56C97.0224 23.752 96.7224 23.904 96.3664 24.016C96.0144 24.132 95.6164 24.19 95.1724 24.19C94.7284 24.19 94.3404 24.146 94.0084 24.058C93.6764 23.97 93.4004 23.852 93.1804 23.704C92.9604 23.556 92.7944 23.384 92.6824 23.188C92.5744 22.996 92.5204 22.794 92.5204 22.582C92.5204 22.282 92.6144 22.028 92.8024 21.82C92.9904 21.612 93.2484 21.446 93.5764 21.322C93.3964 21.242 93.2524 21.136 93.1444 21.004C93.0404 20.868 92.9884 20.686 92.9884 20.458C92.9884 20.37 93.0044 20.28 93.0364 20.188C93.0684 20.092 93.1164 19.998 93.1804 19.906C93.2484 19.81 93.3304 19.72 93.4264 19.636C93.5224 19.552 93.6344 19.478 93.7624 19.414C93.4624 19.246 93.2284 19.024 93.0604 18.748C92.8924 18.468 92.8084 18.144 92.8084 17.776C92.8084 17.48 92.8644 17.212 92.9764 16.972C93.0924 16.728 93.2524 16.522 93.4564 16.354C93.6604 16.182 93.9024 16.05 94.1824 15.958C94.4664 15.866 94.7764 15.82 95.1124 15.82C95.3764 15.82 95.6224 15.85 95.8504 15.91C96.0784 15.966 96.2864 16.05 96.4744 16.162H98.1244ZM105.839 16.924C105.791 17.012 105.717 17.056 105.617 17.056C105.557 17.056 105.489 17.034 105.413 16.99C105.337 16.946 105.243 16.898 105.131 16.846C105.023 16.79 104.893 16.74 104.741 16.696C104.589 16.648 104.409 16.624 104.201 16.624C104.021 16.624 103.859 16.648 103.715 16.696C103.571 16.74 103.447 16.802 103.343 16.882C103.243 16.962 103.165 17.056 103.109 17.164C103.057 17.268 103.031 17.382 103.031 17.506C103.031 17.662 103.075 17.792 103.163 17.896C103.255 18 103.375 18.09 103.523 18.166C103.671 18.242 103.839 18.31 104.027 18.37C104.215 18.426 104.407 18.488 104.603 18.556C104.803 18.62 104.997 18.692 105.185 18.772C105.373 18.852 105.541 18.952 105.689 19.072C105.837 19.192 105.955 19.34 106.043 19.516C106.135 19.688 106.181 19.896 106.181 20.14C106.181 20.42 106.131 20.68 106.031 20.92C105.931 21.156 105.783 21.362 105.587 21.538C105.391 21.71 105.151 21.846 104.867 21.946C104.583 22.046 104.255 22.096 103.883 22.096C103.459 22.096 103.075 22.028 102.731 21.892C102.387 21.752 102.095 21.574 101.855 21.358L102.107 20.95C102.139 20.898 102.177 20.858 102.221 20.83C102.265 20.802 102.321 20.788 102.389 20.788C102.461 20.788 102.537 20.816 102.617 20.872C102.697 20.928 102.793 20.99 102.905 21.058C103.021 21.126 103.161 21.188 103.325 21.244C103.489 21.3 103.693 21.328 103.937 21.328C104.145 21.328 104.327 21.302 104.483 21.25C104.639 21.194 104.769 21.12 104.873 21.028C104.977 20.936 105.053 20.83 105.101 20.71C105.153 20.59 105.179 20.462 105.179 20.326C105.179 20.158 105.133 20.02 105.041 19.912C104.953 19.8 104.835 19.706 104.687 19.63C104.539 19.55 104.369 19.482 104.177 19.426C103.989 19.366 103.795 19.304 103.595 19.24C103.399 19.176 103.205 19.104 103.013 19.024C102.825 18.94 102.657 18.836 102.509 18.712C102.361 18.588 102.241 18.436 102.149 18.256C102.061 18.072 102.017 17.85 102.017 17.59C102.017 17.358 102.065 17.136 102.161 16.924C102.257 16.708 102.397 16.52 102.581 16.36C102.765 16.196 102.991 16.066 103.259 15.97C103.527 15.874 103.833 15.826 104.177 15.826C104.577 15.826 104.935 15.89 105.251 16.018C105.571 16.142 105.847 16.314 106.079 16.534L105.839 16.924ZM110.053 15.826C110.497 15.826 110.897 15.9 111.253 16.048C111.609 16.196 111.913 16.406 112.165 16.678C112.417 16.95 112.609 17.28 112.741 17.668C112.877 18.052 112.945 18.482 112.945 18.958C112.945 19.438 112.877 19.87 112.741 20.254C112.609 20.638 112.417 20.966 112.165 21.238C111.913 21.51 111.609 21.72 111.253 21.868C110.897 22.012 110.497 22.084 110.053 22.084C109.605 22.084 109.201 22.012 108.841 21.868C108.485 21.72 108.181 21.51 107.929 21.238C107.677 20.966 107.483 20.638 107.347 20.254C107.215 19.87 107.149 19.438 107.149 18.958C107.149 18.482 107.215 18.052 107.347 17.668C107.483 17.28 107.677 16.95 107.929 16.678C108.181 16.406 108.485 16.196 108.841 16.048C109.201 15.9 109.605 15.826 110.053 15.826ZM110.053 21.25C110.653 21.25 111.101 21.05 111.397 20.65C111.693 20.246 111.841 19.684 111.841 18.964C111.841 18.24 111.693 17.676 111.397 17.272C111.101 16.868 110.653 16.666 110.053 16.666C109.749 16.666 109.483 16.718 109.255 16.822C109.031 16.926 108.843 17.076 108.691 17.272C108.543 17.468 108.431 17.71 108.355 17.998C108.283 18.282 108.247 18.604 108.247 18.964C108.247 19.684 108.395 20.246 108.691 20.65C108.991 21.05 109.445 21.25 110.053 21.25ZM116.861 15.826C117.305 15.826 117.705 15.9 118.061 16.048C118.417 16.196 118.721 16.406 118.973 16.678C119.225 16.95 119.417 17.28 119.549 17.668C119.685 18.052 119.753 18.482 119.753 18.958C119.753 19.438 119.685 19.87 119.549 20.254C119.417 20.638 119.225 20.966 118.973 21.238C118.721 21.51 118.417 21.72 118.061 21.868C117.705 22.012 117.305 22.084 116.861 22.084C116.413 22.084 116.009 22.012 115.649 21.868C115.293 21.72 114.989 21.51 114.737 21.238C114.485 20.966 114.291 20.638 114.155 20.254C114.023 19.87 113.957 19.438 113.957 18.958C113.957 18.482 114.023 18.052 114.155 17.668C114.291 17.28 114.485 16.95 114.737 16.678C114.989 16.406 115.293 16.196 115.649 16.048C116.009 15.9 116.413 15.826 116.861 15.826ZM116.861 21.25C117.461 21.25 117.909 21.05 118.205 20.65C118.501 20.246 118.649 19.684 118.649 18.964C118.649 18.24 118.501 17.676 118.205 17.272C117.909 16.868 117.461 16.666 116.861 16.666C116.557 16.666 116.291 16.718 116.063 16.822C115.839 16.926 115.651 17.076 115.499 17.272C115.351 17.468 115.239 17.71 115.163 17.998C115.091 18.282 115.055 18.604 115.055 18.964C115.055 19.684 115.203 20.246 115.499 20.65C115.799 21.05 116.253 21.25 116.861 21.25ZM122.116 16.804C122.248 16.656 122.388 16.522 122.536 16.402C122.684 16.282 122.84 16.18 123.004 16.096C123.172 16.008 123.348 15.942 123.532 15.898C123.72 15.85 123.922 15.826 124.138 15.826C124.47 15.826 124.762 15.882 125.014 15.994C125.27 16.102 125.482 16.258 125.65 16.462C125.822 16.662 125.952 16.904 126.04 17.188C126.128 17.472 126.172 17.786 126.172 18.13V22H125.098V18.13C125.098 17.67 124.992 17.314 124.78 17.062C124.572 16.806 124.254 16.678 123.826 16.678C123.51 16.678 123.214 16.754 122.938 16.906C122.666 17.058 122.414 17.264 122.182 17.524V22H121.108V15.922H121.75C121.902 15.922 121.996 15.996 122.032 16.144L122.116 16.804ZM132.735 22.096C132.255 22.096 131.885 21.962 131.625 21.694C131.369 21.426 131.241 21.04 131.241 20.536V16.816H130.509C130.445 16.816 130.391 16.798 130.347 16.762C130.303 16.722 130.281 16.662 130.281 16.582V16.156L131.277 16.03L131.523 14.152C131.535 14.092 131.561 14.044 131.601 14.008C131.645 13.968 131.701 13.948 131.769 13.948H132.309V16.042H134.067V16.816H132.309V20.464C132.309 20.72 132.371 20.91 132.495 21.034C132.619 21.158 132.779 21.22 132.975 21.22C133.087 21.22 133.183 21.206 133.263 21.178C133.347 21.146 133.419 21.112 133.479 21.076C133.539 21.04 133.589 21.008 133.629 20.98C133.673 20.948 133.711 20.932 133.743 20.932C133.799 20.932 133.849 20.966 133.893 21.034L134.205 21.544C134.021 21.716 133.799 21.852 133.539 21.952C133.279 22.048 133.011 22.096 132.735 22.096ZM137.697 15.826C138.141 15.826 138.541 15.9 138.897 16.048C139.253 16.196 139.557 16.406 139.809 16.678C140.061 16.95 140.253 17.28 140.385 17.668C140.521 18.052 140.589 18.482 140.589 18.958C140.589 19.438 140.521 19.87 140.385 20.254C140.253 20.638 140.061 20.966 139.809 21.238C139.557 21.51 139.253 21.72 138.897 21.868C138.541 22.012 138.141 22.084 137.697 22.084C137.249 22.084 136.845 22.012 136.485 21.868C136.129 21.72 135.825 21.51 135.573 21.238C135.321 20.966 135.127 20.638 134.991 20.254C134.859 19.87 134.793 19.438 134.793 18.958C134.793 18.482 134.859 18.052 134.991 17.668C135.127 17.28 135.321 16.95 135.573 16.678C135.825 16.406 136.129 16.196 136.485 16.048C136.845 15.9 137.249 15.826 137.697 15.826ZM137.697 21.25C138.297 21.25 138.745 21.05 139.041 20.65C139.337 20.246 139.485 19.684 139.485 18.964C139.485 18.24 139.337 17.676 139.041 17.272C138.745 16.868 138.297 16.666 137.697 16.666C137.393 16.666 137.127 16.718 136.899 16.822C136.675 16.926 136.487 17.076 136.335 17.272C136.187 17.468 136.075 17.71 135.999 17.998C135.927 18.282 135.891 18.604 135.891 18.964C135.891 19.684 136.039 20.246 136.335 20.65C136.635 21.05 137.089 21.25 137.697 21.25Z" fill="#1B1232"/>
<path d="M64.48 40.416C64.9653 40.416 65.3867 40.3733 65.744 40.288C66.1067 40.1973 66.4507 40.0747 66.776 39.92V37.816H65.328C65.1893 37.816 65.08 37.7787 65 37.704C64.92 37.624 64.88 37.528 64.88 37.416V36.2H68.728V40.88C68.4347 41.0933 68.128 41.28 67.808 41.44C67.4933 41.5947 67.1547 41.7227 66.792 41.824C66.4347 41.9253 66.0507 42 65.64 42.048C65.2293 42.1013 64.7867 42.128 64.312 42.128C63.4693 42.128 62.6933 41.9813 61.984 41.688C61.2747 41.3947 60.6613 40.9867 60.144 40.464C59.6267 39.9413 59.2213 39.3173 58.928 38.592C58.64 37.8667 58.496 37.0747 58.496 36.216C58.496 35.3467 58.6373 34.5493 58.92 33.824C59.2027 33.0987 59.6027 32.4747 60.12 31.952C60.6427 31.4293 61.2747 31.024 62.016 30.736C62.7573 30.448 63.5893 30.304 64.512 30.304C65.456 30.304 66.272 30.4453 66.96 30.728C67.6533 31.0053 68.24 31.368 68.72 31.816L68.096 32.792C67.9733 32.9893 67.8107 33.088 67.608 33.088C67.48 33.088 67.3493 33.0453 67.216 32.96C67.0453 32.8587 66.8693 32.7573 66.688 32.656C66.512 32.5547 66.3147 32.4667 66.096 32.392C65.8827 32.3173 65.64 32.256 65.368 32.208C65.1013 32.16 64.792 32.136 64.44 32.136C63.8693 32.136 63.352 32.232 62.888 32.424C62.4293 32.616 62.0373 32.8907 61.712 33.248C61.3867 33.6053 61.136 34.0347 60.96 34.536C60.784 35.0373 60.696 35.5973 60.696 36.216C60.696 36.8827 60.7893 37.4773 60.976 38C61.1627 38.5173 61.424 38.9547 61.76 39.312C62.096 39.6693 62.496 39.944 62.96 40.136C63.424 40.3227 63.9307 40.416 64.48 40.416ZM74.1225 33.664C74.7358 33.664 75.2905 33.7627 75.7865 33.96C76.2878 34.1573 76.7145 34.4373 77.0665 34.8C77.4185 35.1627 77.6905 35.6053 77.8825 36.128C78.0745 36.6507 78.1705 37.2347 78.1705 37.88C78.1705 38.5307 78.0745 39.1173 77.8825 39.64C77.6905 40.1627 77.4185 40.608 77.0665 40.976C76.7145 41.344 76.2878 41.6267 75.7865 41.824C75.2905 42.0213 74.7358 42.12 74.1225 42.12C73.5092 42.12 72.9518 42.0213 72.4505 41.824C71.9492 41.6267 71.5198 41.344 71.1625 40.976C70.8105 40.608 70.5358 40.1627 70.3385 39.64C70.1465 39.1173 70.0505 38.5307 70.0505 37.88C70.0505 37.2347 70.1465 36.6507 70.3385 36.128C70.5358 35.6053 70.8105 35.1627 71.1625 34.8C71.5198 34.4373 71.9492 34.1573 72.4505 33.96C72.9518 33.7627 73.5092 33.664 74.1225 33.664ZM74.1225 40.6C74.8052 40.6 75.3092 40.3707 75.6345 39.912C75.9652 39.4533 76.1305 38.7813 76.1305 37.896C76.1305 37.0107 75.9652 36.336 75.6345 35.872C75.3092 35.408 74.8052 35.176 74.1225 35.176C73.4292 35.176 72.9172 35.4107 72.5865 35.88C72.2558 36.344 72.0905 37.016 72.0905 37.896C72.0905 38.776 72.2558 39.448 72.5865 39.912C72.9172 40.3707 73.4292 40.6 74.1225 40.6ZM83.2163 33.664C83.8296 33.664 84.3843 33.7627 84.8803 33.96C85.3816 34.1573 85.8083 34.4373 86.1603 34.8C86.5123 35.1627 86.7843 35.6053 86.9763 36.128C87.1683 36.6507 87.2643 37.2347 87.2643 37.88C87.2643 38.5307 87.1683 39.1173 86.9763 39.64C86.7843 40.1627 86.5123 40.608 86.1603 40.976C85.8083 41.344 85.3816 41.6267 84.8803 41.824C84.3843 42.0213 83.8296 42.12 83.2163 42.12C82.6029 42.12 82.0456 42.0213 81.5443 41.824C81.0429 41.6267 80.6136 41.344 80.2563 40.976C79.9043 40.608 79.6296 40.1627 79.4323 39.64C79.2403 39.1173 79.1443 38.5307 79.1443 37.88C79.1443 37.2347 79.2403 36.6507 79.4323 36.128C79.6296 35.6053 79.9043 35.1627 80.2563 34.8C80.6136 34.4373 81.0429 34.1573 81.5443 33.96C82.0456 33.7627 82.6029 33.664 83.2163 33.664ZM83.2163 40.6C83.8989 40.6 84.4029 40.3707 84.7283 39.912C85.0589 39.4533 85.2243 38.7813 85.2243 37.896C85.2243 37.0107 85.0589 36.336 84.7283 35.872C84.4029 35.408 83.8989 35.176 83.2163 35.176C82.5229 35.176 82.0109 35.4107 81.6803 35.88C81.3496 36.344 81.1843 37.016 81.1843 37.896C81.1843 38.776 81.3496 39.448 81.6803 39.912C82.0109 40.3707 82.5229 40.6 83.2163 40.6ZM91.646 33.648C91.998 33.648 92.3287 33.6853 92.638 33.76C92.9473 33.8293 93.23 33.9333 93.486 34.072H95.846V34.808C95.846 34.9307 95.814 35.0267 95.75 35.096C95.686 35.1653 95.5767 35.2133 95.422 35.24L94.686 35.376C94.7393 35.5147 94.7793 35.6613 94.806 35.816C94.838 35.9707 94.854 36.1333 94.854 36.304C94.854 36.7093 94.7713 37.0773 94.606 37.408C94.446 37.7333 94.222 38.0107 93.934 38.24C93.6513 38.4693 93.3127 38.648 92.918 38.776C92.5287 38.8987 92.1047 38.96 91.646 38.96C91.3367 38.96 91.0353 38.9307 90.742 38.872C90.486 39.0267 90.358 39.2 90.358 39.392C90.358 39.5573 90.4327 39.68 90.582 39.76C90.7367 39.8347 90.9367 39.888 91.182 39.92C91.4327 39.952 91.7153 39.9733 92.03 39.984C92.3447 39.9893 92.6673 40.0053 92.998 40.032C93.3287 40.0587 93.6513 40.1067 93.966 40.176C94.2807 40.24 94.5607 40.344 94.806 40.488C95.0567 40.632 95.2567 40.8293 95.406 41.08C95.5607 41.3253 95.638 41.6427 95.638 42.032C95.638 42.3947 95.5473 42.7467 95.366 43.088C95.19 43.4293 94.9313 43.7333 94.59 44C94.254 44.2667 93.8407 44.48 93.35 44.64C92.8593 44.8053 92.2993 44.888 91.67 44.888C91.046 44.888 90.5047 44.8267 90.046 44.704C89.5873 44.5867 89.206 44.4267 88.902 44.224C88.6033 44.0267 88.3793 43.7973 88.23 43.536C88.0807 43.2747 88.006 43.0027 88.006 42.72C88.006 42.336 88.1233 42.0133 88.358 41.752C88.5927 41.4907 88.918 41.2827 89.334 41.128C89.1313 41.016 88.9687 40.8667 88.846 40.68C88.7233 40.4933 88.662 40.2507 88.662 39.952C88.662 39.8293 88.6833 39.704 88.726 39.576C88.7687 39.4427 88.8327 39.312 88.918 39.184C89.0087 39.056 89.1207 38.936 89.254 38.824C89.3873 38.7067 89.5447 38.6027 89.726 38.512C89.31 38.288 88.982 37.9893 88.742 37.616C88.5073 37.2427 88.39 36.8053 88.39 36.304C88.39 35.8987 88.47 35.5333 88.63 35.208C88.7953 34.8773 89.022 34.5973 89.31 34.368C89.6033 34.1333 89.9473 33.9547 90.342 33.832C90.742 33.7093 91.1767 33.648 91.646 33.648ZM93.814 42.368C93.814 42.208 93.766 42.0773 93.67 41.976C93.574 41.8747 93.4433 41.7973 93.278 41.744C93.1127 41.6853 92.918 41.6427 92.694 41.616C92.4753 41.5893 92.2407 41.5707 91.99 41.56C91.7447 41.544 91.4887 41.5307 91.222 41.52C90.9607 41.504 90.7073 41.48 90.462 41.448C90.238 41.5707 90.0567 41.7173 89.918 41.888C89.7847 42.0533 89.718 42.2453 89.718 42.464C89.718 42.608 89.7527 42.7413 89.822 42.864C89.8967 42.992 90.0113 43.1013 90.166 43.192C90.326 43.2827 90.5313 43.352 90.782 43.4C91.0327 43.4533 91.3393 43.48 91.702 43.48C92.07 43.48 92.3873 43.4507 92.654 43.392C92.9207 43.3387 93.1393 43.2613 93.31 43.16C93.486 43.064 93.614 42.9467 93.694 42.808C93.774 42.6747 93.814 42.528 93.814 42.368ZM91.646 37.696C91.8913 37.696 92.1047 37.664 92.286 37.6C92.4673 37.5307 92.6167 37.4373 92.734 37.32C92.8567 37.2027 92.9473 37.0613 93.006 36.896C93.07 36.7307 93.102 36.5493 93.102 36.352C93.102 35.9467 92.9793 35.6267 92.734 35.392C92.494 35.152 92.1313 35.032 91.646 35.032C91.1607 35.032 90.7953 35.152 90.55 35.392C90.31 35.6267 90.19 35.9467 90.19 36.352C90.19 36.544 90.2193 36.7227 90.278 36.888C90.342 37.0533 90.4327 37.1973 90.55 37.32C90.6727 37.4373 90.8247 37.5307 91.006 37.6C91.1927 37.664 91.406 37.696 91.646 37.696ZM99.1913 30.112V42H97.2153V30.112H99.1913ZM104.823 33.664C105.34 33.664 105.815 33.7467 106.247 33.912C106.684 34.0773 107.06 34.32 107.375 34.64C107.69 34.9547 107.935 35.344 108.111 35.808C108.287 36.2667 108.375 36.792 108.375 37.384C108.375 37.5333 108.367 37.6587 108.351 37.76C108.34 37.856 108.316 37.9333 108.279 37.992C108.247 38.0453 108.202 38.0853 108.143 38.112C108.084 38.1333 108.01 38.144 107.919 38.144H102.847C102.906 38.9867 103.132 39.6053 103.527 40C103.922 40.3947 104.444 40.592 105.095 40.592C105.415 40.592 105.69 40.5547 105.919 40.48C106.154 40.4053 106.356 40.3227 106.527 40.232C106.703 40.1413 106.855 40.0587 106.983 39.984C107.116 39.9093 107.244 39.872 107.367 39.872C107.447 39.872 107.516 39.888 107.575 39.92C107.634 39.952 107.684 39.9973 107.727 40.056L108.303 40.776C108.084 41.032 107.839 41.248 107.567 41.424C107.295 41.5947 107.01 41.7333 106.711 41.84C106.418 41.9413 106.116 42.0133 105.807 42.056C105.503 42.0987 105.207 42.12 104.919 42.12C104.348 42.12 103.818 42.0267 103.327 41.84C102.836 41.648 102.41 41.368 102.047 41C101.684 40.6267 101.399 40.168 101.191 39.624C100.983 39.0747 100.879 38.44 100.879 37.72C100.879 37.16 100.97 36.6347 101.151 36.144C101.332 35.648 101.591 35.2187 101.927 34.856C102.268 34.488 102.682 34.1973 103.167 33.984C103.658 33.7707 104.21 33.664 104.823 33.664ZM104.863 35.08C104.287 35.08 103.836 35.2427 103.511 35.568C103.186 35.8933 102.978 36.3547 102.887 36.952H106.599C106.599 36.696 106.564 36.456 106.495 36.232C106.426 36.0027 106.319 35.8027 106.175 35.632C106.031 35.4613 105.85 35.328 105.631 35.232C105.412 35.1307 105.156 35.08 104.863 35.08ZM115.408 37.928V42H113.256V30.432H117.024C117.797 30.432 118.466 30.5227 119.032 30.704C119.597 30.8853 120.064 31.1387 120.432 31.464C120.8 31.7893 121.072 32.1787 121.248 32.632C121.424 33.0853 121.512 33.5813 121.512 34.12C121.512 34.68 121.418 35.1947 121.232 35.664C121.045 36.128 120.765 36.528 120.392 36.864C120.018 37.2 119.552 37.4613 118.992 37.648C118.432 37.8347 117.776 37.928 117.024 37.928H115.408ZM115.408 36.248H117.024C117.418 36.248 117.762 36.2 118.056 36.104C118.349 36.0027 118.592 35.8613 118.784 35.68C118.976 35.4933 119.12 35.2693 119.216 35.008C119.312 34.7413 119.36 34.4453 119.36 34.12C119.36 33.8107 119.312 33.5307 119.216 33.28C119.12 33.0293 118.976 32.816 118.784 32.64C118.592 32.464 118.349 32.3307 118.056 32.24C117.762 32.144 117.418 32.096 117.024 32.096H115.408V36.248ZM125.176 30.112V42H123.2V30.112H125.176ZM133.847 42H132.959C132.773 42 132.626 41.9733 132.519 41.92C132.413 41.8613 132.333 41.7467 132.279 41.576L132.103 40.992C131.895 41.1787 131.69 41.344 131.487 41.488C131.29 41.6267 131.085 41.744 130.871 41.84C130.658 41.936 130.431 42.008 130.191 42.056C129.951 42.104 129.685 42.128 129.391 42.128C129.045 42.128 128.725 42.0827 128.431 41.992C128.138 41.896 127.885 41.7547 127.671 41.568C127.463 41.3813 127.301 41.1493 127.183 40.872C127.066 40.5947 127.007 40.272 127.007 39.904C127.007 39.5947 127.087 39.2907 127.247 38.992C127.413 38.688 127.685 38.416 128.063 38.176C128.442 37.9307 128.946 37.728 129.575 37.568C130.205 37.408 130.986 37.3173 131.919 37.296V36.816C131.919 36.2667 131.802 35.8613 131.567 35.6C131.338 35.3333 131.002 35.2 130.559 35.2C130.239 35.2 129.973 35.2373 129.759 35.312C129.546 35.3867 129.359 35.472 129.199 35.568C129.045 35.6587 128.901 35.7413 128.767 35.816C128.634 35.8907 128.487 35.928 128.327 35.928C128.194 35.928 128.079 35.8933 127.983 35.824C127.887 35.7547 127.81 35.6693 127.751 35.568L127.391 34.936C128.335 34.072 129.474 33.64 130.807 33.64C131.287 33.64 131.714 33.72 132.087 33.88C132.466 34.0347 132.786 34.2533 133.047 34.536C133.309 34.8133 133.506 35.1467 133.639 35.536C133.778 35.9253 133.847 36.352 133.847 36.816V42ZM130.007 40.768C130.21 40.768 130.397 40.7493 130.567 40.712C130.738 40.6747 130.898 40.6187 131.047 40.544C131.202 40.4693 131.349 40.3787 131.487 40.272C131.631 40.16 131.775 40.0293 131.919 39.88V38.496C131.343 38.5227 130.861 38.5733 130.471 38.648C130.087 38.7173 129.778 38.808 129.543 38.92C129.309 39.032 129.141 39.1627 129.039 39.312C128.943 39.4613 128.895 39.624 128.895 39.8C128.895 40.1467 128.997 40.3947 129.199 40.544C129.407 40.6933 129.677 40.768 130.007 40.768ZM138.421 44.256C138.362 44.3947 138.285 44.4987 138.189 44.568C138.098 44.6427 137.957 44.68 137.765 44.68H136.293L137.829 41.392L134.509 33.792H136.237C136.397 33.792 136.52 33.8293 136.605 33.904C136.69 33.9787 136.754 34.064 136.797 34.16L138.549 38.416C138.608 38.5547 138.658 38.6987 138.701 38.848C138.744 38.9973 138.781 39.1467 138.813 39.296C138.856 39.1413 138.901 38.992 138.949 38.848C139.002 38.704 139.058 38.5573 139.117 38.408L140.765 34.16C140.808 34.0533 140.877 33.9653 140.973 33.896C141.074 33.8267 141.186 33.792 141.309 33.792H142.893L138.421 44.256Z" fill="#1B1232"/>
<defs>
<clipPath id="clip0_1303_3976">
<rect width="20" height="21.4062" fill="white" transform="translate(22 17.2969)"/>
</clipPath>
</defs>
</svg>
